<?xml version="1.0" standalone="no"?>
<!DOCTYPE svg PUBLIC "-//W3C//DTD SVG 20010904//EN"
 "http://www.w3.org/TR/2001/REC-SVG-20010904/DTD/svg10.dtd">
<svg version="1.0" xmlns="http://www.w3.org/2000/svg"
 width="679.000000pt" height="679.000000pt" viewBox="0 0 679.000000 679.000000"
 preserveAspectRatio="xMidYMid meet">
<metadata>
Created by potrace 1.11, written by Peter Selinger 2001-2013
</metadata>
<g transform="translate(0.000000,679.000000) scale(0.100000,-0.100000)"
fill="#000000" stroke="none">
<path d="M3325 5464 c-22 -24 -46 -56 -52 -71 -12 -26 -10 -94 4 -129 4 -11 0
-11 -23 1 -32 16 -91 20 -113 6 -10 -7 -9 -11 6 -22 28 -20 42 -50 48 -105 7
-55 18 -78 52 -116 14 -14 22 -32 18 -38 -5 -8 -13 -5 -26 9 -30 32 -69 49
-133 55 -63 7 -110 27 -124 52 -7 13 -10 13 -13 3 -5 -13 -5 -26 -1 -86 1 -12
10 -29 19 -39 16 -16 16 -16 -7 -9 -44 15 -104 13 -135 -2 -31 -16 -120 -93
-107 -93 4 0 24 -15 45 -32 22 -18 51 -38 67 -44 28 -12 103 -12 132 0 15 7
15 4 3 -31 -11 -31 -11 -87 0 -101 2 -2 15 8 30 22 27 25 41 30 129 41 38 5
58 15 82 39 38 38 54 31 54 -23 0 -96 -118 -247 -256 -327 -148 -86 -256 -116
-427 -119 -257 -4 -467 73 -591 217 -43 51 -106 171 -106 204 0 29 14 38 31
18 22 -27 68 -45 132 -51 63 -5 127 -28 127 -44 0 -5 5 -9 11 -9 19 0 5 97
-17 121 -19 21 -19 22 3 15 34 -11 94 -9 125 3 29 11 124 101 107 101 -5 0
-22 11 -37 25 -56 52 -150 73 -202 45 -27 -15 -32 -12 -20 9 12 23 12 87 1
116 -8 19 -8 19 -20 -4 -15 -26 -58 -47 -120 -56 -59 -9 -96 -30 -117 -67 -6
-11 -14 -14 -23 -8 -12 7 -9 14 12 39 28 33 41 79 34 121 -6 36 12 92 36 112
19 17 19 18 1 19 -55 3 -85 -1 -114 -16 -18 -9 -29 -12 -25 -5 4 6 7 31 7 55
0 55 -25 97 -86 147 l-44 38 -37 -50 c-44 -60 -54 -110 -31 -164 9 -21 16 -40
16 -41 0 -1 -17 2 -38 8 -21 5 -55 7 -75 3 l-37 -7 34 -32 c24 -23 39 -51 51
-92 13 -45 28 -70 61 -102 25 -24 39 -45 33 -49 -6 -3 -20 3 -32 14 -31 28
-81 42 -147 42 -44 0 -65 6 -93 24 -24 16 -37 21 -40 13 -6 -19 13 -90 29
-108 14 -15 12 -17 -29 -14 -72 4 -97 -5 -151 -59 l-52 -52 61 -39 c51 -33 68
-39 115 -39 30 0 65 4 77 8 20 7 21 6 16 -33 -3 -22 0 -54 7 -70 l12 -29 26
29 c20 23 44 34 94 45 54 13 73 22 98 51 26 30 33 33 47 22 12 -11 14 -28 10
-82 -15 -210 -237 -415 -481 -444 -224 -27 -419 32 -555 167 -97 98 -165 224
-132 244 5 3 14 -1 21 -8 14 -18 52 -27 125 -30 34 -2 62 -9 73 -19 10 -10 21
-17 24 -17 11 0 -3 65 -22 96 l-17 31 37 -7 c48 -9 89 12 128 65 l29 40 -51
33 c-28 17 -56 33 -63 33 -7 1 -19 2 -25 3 -7 1 -30 -4 -50 -10 l-38 -13 4 32
c6 55 -23 111 -37 73 -8 -20 -46 -44 -79 -50 -37 -6 -63 -22 -85 -50 -31 -38
-49 -18 -24 26 18 29 21 49 18 125 -2 77 1 94 17 112 l19 21 -44 0 c-46 0
-109 -30 -109 -52 0 -7 -11 11 -25 39 -30 67 -88 124 -159 157 -59 28 -156 56
-193 56 -22 0 -21 -2 12 -32 74 -64 175 -234 245 -412 20 -50 22 -63 12 -90
-24 -66 -12 -115 41 -167 31 -31 41 -56 102 -264 117 -402 118 -407 145 -426
21 -15 33 -16 80 -8 30 5 79 12 109 15 30 3 62 7 72 9 9 2 39 6 66 10 26 4 59
9 73 11 23 3 232 27 345 39 28 3 66 8 85 10 19 3 64 7 100 10 36 3 81 8 100
10 19 3 67 7 105 10 39 3 88 7 110 9 22 2 81 7 130 11 50 3 115 8 145 10 619
44 1545 53 2170 20 179 -9 308 -17 350 -20 25 -2 83 -6 130 -10 116 -8 198
-15 240 -20 19 -2 73 -7 120 -11 47 -3 92 -7 100 -9 8 -2 50 -6 93 -10 43 -3
86 -8 96 -10 9 -2 46 -6 82 -9 36 -4 76 -8 90 -10 13 -3 51 -7 84 -11 32 -4
66 -8 75 -10 8 -1 40 -6 70 -9 30 -4 114 -15 185 -25 161 -24 165 -22 196 82
11 39 34 115 49 167 16 52 48 163 71 245 39 136 47 154 85 196 50 54 61 97 41
154 -13 36 -12 44 14 112 63 164 149 309 229 391 47 48 42 50 -58 27 -124 -29
-212 -90 -265 -183 -26 -47 -32 -52 -42 -39 -16 22 -59 37 -106 37 l-40 0 20
-21 c24 -26 30 -58 21 -108 -10 -54 -3 -99 19 -137 26 -44 1 -56 -29 -14 -15
21 -37 35 -74 45 -53 16 -96 46 -96 68 -1 7 -7 1 -14 -13 -8 -13 -13 -43 -12
-67 0 -24 0 -43 -2 -43 -2 0 -13 5 -25 12 -38 20 -98 11 -149 -25 -27 -17 -48
-35 -48 -38 0 -3 20 -28 44 -54 43 -46 46 -47 95 -44 28 2 51 3 51 1 0 -1 -6
-13 -14 -25 -8 -12 -18 -39 -21 -59 l-7 -37 38 19 c25 13 56 19 90 19 38 -1
63 5 89 20 30 18 37 18 41 6 4 -8 -3 -35 -14 -59 -87 -184 -256 -310 -462
-342 -73 -11 -220 -6 -285 11 -227 58 -416 258 -418 442 -1 82 13 93 60 47 18
-19 46 -36 61 -39 89 -19 114 -30 136 -57 l23 -30 11 44 c11 43 10 77 -3 98
-3 5 10 3 29 -5 65 -27 112 -18 198 38 39 25 46 33 35 42 -7 5 -21 22 -31 37
-28 42 -97 72 -152 63 l-45 -6 21 38 c11 21 20 53 20 71 l0 33 -29 -22 c-22
-16 -52 -24 -115 -29 -79 -8 -146 -31 -146 -52 0 -4 -7 -8 -15 -8 -24 0 -17
16 19 44 22 16 40 43 51 73 28 82 54 128 82 145 l27 16 -47 7 c-27 4 -59 3
-78 -4 -42 -15 -42 -15 -25 17 8 15 16 41 19 58 5 30 -14 102 -30 113 -5 3
-18 18 -29 33 l-20 26 -56 -49 c-63 -55 -78 -86 -72 -153 3 -45 3 -46 -19 -32
-22 15 -49 19 -101 17 l-29 -1 23 -25 c19 -20 24 -40 30 -110 5 -65 12 -93 29
-116 27 -37 17 -60 -11 -24 -26 33 -63 52 -118 60 -54 8 -94 28 -114 56 -14
21 -15 20 -25 -15 -9 -36 -9 -57 4 -97 6 -17 4 -18 -22 -8 -35 14 -108 13
-136 -3 -12 -6 -41 -25 -63 -43 l-42 -31 47 -46 c54 -53 81 -63 150 -56 l49 5
-18 -40 c-10 -22 -16 -47 -15 -56 2 -9 4 -21 4 -28 1 -8 15 -3 37 12 24 16 52
25 78 26 23 0 54 3 71 5 36 6 95 41 95 57 0 6 7 4 16 -5 20 -20 12 -50 -41
-143 -87 -156 -260 -261 -480 -292 -65 -9 -236 -8 -300 2 -76 11 -203 57 -280
99 -91 51 -207 166 -240 238 -28 62 -37 115 -23 141 9 18 11 18 29 -2 33 -35
63 -51 110 -57 69 -9 107 -23 128 -50 l20 -25 7 48 c5 36 3 54 -10 76 -15 26
-15 29 0 23 74 -28 142 -14 209 44 l44 38 -40 37 c-65 58 -127 75 -196 51 -22
-7 -22 -6 -8 21 9 16 14 49 13 76 l-2 47 -25 -24 c-34 -32 -64 -40 -158 -45
-12 -1 -42 -17 -67 -36 -27 -21 -48 -30 -52 -24 -3 6 3 17 15 25 29 20 61 86
61 124 0 44 24 96 51 111 23 12 23 12 4 20 -33 13 -84 10 -115 -6 l-30 -15 11
27 c27 69 7 133 -58 194 l-38 35 -40 -42z m92 -531 c44 -59 -30 -130 -89 -84
-31 25 -30 67 2 93 26 21 69 17 87 -9z m-1582 -58 c29 -28 32 -51 8 -77 -35
-39 -113 -8 -113 46 0 27 33 56 63 56 10 0 29 -11 42 -25z m3154 4 c10 -11 18
-28 16 -37 -2 -9 -4 -20 -4 -24 -4 -32 -84 -51 -109 -26 -19 19 -14 65 10 88
28 26 62 26 87 -1z m-4500 -172 c27 -72 -77 -108 -113 -39 -28 55 21 104 77
75 15 -8 32 -24 36 -36z m5871 24 c15 -30 12 -52 -12 -78 -26 -28 -69 -30 -93
-3 -20 22 -15 59 11 84 22 23 81 21 94 -3z"/>
<path d="M2938 3945 c-2 -2 -102 -6 -223 -10 -292 -10 -313 -11 -435 -19 -164
-10 -363 -25 -425 -31 -22 -2 -69 -7 -105 -10 -112 -9 -184 -16 -220 -20 -19
-2 -64 -7 -100 -10 -36 -4 -76 -8 -90 -10 -14 -2 -50 -7 -80 -10 -71 -7 -429
-54 -456 -59 -12 -2 -45 -7 -74 -11 -79 -10 -100 -20 -100 -49 0 -28 38 -69
57 -62 8 4 18 -13 28 -47 64 -226 84 -294 90 -310 5 -12 1 -25 -13 -37 -25
-23 -22 -58 7 -81 20 -17 18 -17 161 6 19 3 85 13 145 21 61 8 121 17 135 19
58 8 108 15 160 21 77 8 108 12 165 19 62 7 123 13 200 20 33 3 76 7 95 10 19
2 69 7 110 10 168 12 217 16 250 20 19 2 96 7 170 10 74 4 154 8 177 10 270
22 1373 22 1603 0 19 -2 98 -6 175 -10 77 -4 156 -8 175 -10 19 -3 71 -7 115
-10 44 -3 100 -7 125 -10 25 -2 79 -7 120 -10 41 -4 86 -8 100 -10 14 -2 54
-6 90 -10 36 -3 81 -8 100 -10 19 -3 58 -7 85 -10 61 -7 131 -15 165 -20 14
-2 81 -12 150 -21 69 -9 134 -18 145 -19 11 -2 43 -6 70 -10 28 -4 70 -11 94
-15 36 -6 46 -5 62 11 23 23 25 67 4 75 -22 9 -20 20 38 219 37 124 57 179 66
177 28 -6 67 52 55 82 -6 17 -29 22 -159 40 -38 6 -141 20 -215 30 -39 6 -100
13 -175 21 -27 4 -61 8 -75 10 -14 2 -52 7 -85 10 -33 3 -76 8 -95 10 -37 5
-223 23 -300 30 -185 16 -268 23 -375 30 -49 3 -118 8 -153 10 -34 3 -122 7
-195 10 -72 3 -170 8 -217 11 -85 6 -1117 14 -1122 9z m466 -98 c63 -66 63
-61 10 -117 l-48 -52 -43 49 c-24 26 -43 52 -43 58 0 9 80 95 89 95 2 0 18
-15 35 -33z m-576 -20 c23 -23 42 -47 42 -52 0 -15 -71 -95 -84 -95 -7 0 -31
20 -54 43 l-43 44 41 51 c22 29 44 52 48 52 4 0 27 -19 50 -43z m1175 -1 c20
-25 37 -49 37 -55 0 -12 -82 -91 -95 -91 -9 0 -61 58 -78 86 -6 10 77 104 92
104 4 0 23 -20 44 -44z m-1759 -30 c34 -30 46 -48 41 -57 -18 -30 -67 -89 -75
-89 -10 0 -100 80 -100 90 0 11 70 100 78 100 4 0 30 -20 56 -44z m2353 -11
l34 -49 -48 -43 c-26 -23 -52 -42 -58 -42 -10 0 -75 82 -75 96 0 15 85 93 99
91 8 -2 29 -25 48 -53z m-2933 -38 l49 -43 -34 -52 c-19 -28 -38 -52 -44 -52
-5 0 -32 20 -59 44 l-50 43 33 52 c18 28 38 51 45 51 6 0 33 -19 60 -43z
m3514 -7 l33 -51 -33 -30 c-18 -17 -44 -38 -57 -47 -22 -15 -24 -14 -42 9 -10
13 -26 39 -36 57 -18 33 -18 33 7 52 14 10 36 28 49 39 13 12 29 21 35 21 6 0
26 -23 44 -50z m-1872 -50 c36 -39 35 -42 -21 -103 l-35 -39 -45 47 c-25 26
-45 50 -45 54 0 3 19 28 41 54 46 53 44 53 105 -13z m232 9 c18 -20 32 -43 32
-51 0 -7 -20 -33 -43 -56 l-44 -43 -41 48 c-23 26 -42 51 -42 54 0 4 18 28 41
53 45 50 49 50 97 -5z m-579 -4 c28 -31 39 -50 34 -59 -13 -24 -73 -86 -82
-86 -5 0 -27 20 -50 45 -46 50 -46 44 9 113 14 17 30 31 36 31 6 1 30 -19 53
-44z m920 -2 l40 -47 -32 -36 c-59 -68 -66 -69 -109 -19 -21 24 -38 49 -38 55
0 14 72 92 87 93 6 1 30 -20 52 -46z m-2749 -56 c0 -11 -50 -96 -60 -102 -13
-8 -115 75 -112 92 4 18 28 59 50 85 13 16 18 14 68 -25 30 -23 54 -45 54 -50z
m1588 50 c23 -23 42 -46 42 -50 0 -6 -5 -14 -57 -75 l-22 -26 -40 35 c-56 48
-60 69 -20 118 18 23 37 41 44 41 6 0 30 -19 53 -43z m1400 -1 c17 -24 32 -47
32 -52 0 -6 -21 -30 -46 -54 l-45 -45 -39 45 c-22 25 -40 51 -40 59 0 17 76
91 93 91 7 0 27 -20 45 -44z m1622 12 c0 -5 10 -22 21 -38 12 -16 19 -35 16
-43 -3 -7 -28 -30 -55 -50 -46 -33 -51 -34 -64 -19 -27 33 -48 71 -48 89 1 25
101 94 118 81 6 -6 12 -15 12 -20z m-3351 -34 c38 -37 37 -50 -12 -107 l-32
-38 -48 43 c-26 24 -47 48 -47 54 0 6 16 32 36 58 40 52 36 52 103 -10z m2080
-12 l24 -34 -50 -50 -51 -50 -42 53 -42 53 52 49 c57 55 55 56 109 -21z
m-2330 8 c50 -45 50 -63 2 -118 -33 -39 -44 -36 -100 22 l-34 36 34 50 c19 27
39 50 44 50 6 -1 30 -19 54 -40z m2559 -13 l33 -46 -28 -28 c-66 -66 -71 -68
-93 -48 -12 10 -30 34 -42 54 l-22 34 49 44 c26 24 53 42 59 40 6 -2 26 -24
44 -50z m-2891 -21 l48 -44 -34 -49 c-19 -26 -36 -50 -37 -51 -5 -7 -32 12
-73 51 l-41 38 33 49 c17 27 37 50 44 50 6 0 33 -20 60 -44z m3222 2 c17 -23
31 -47 31 -54 0 -12 -89 -94 -102 -94 -10 0 -68 86 -68 102 0 15 79 87 97 88
6 0 25 -19 42 -42z m-3446 -34 c15 -12 27 -27 27 -33 0 -16 -54 -101 -64 -101
-15 0 -106 73 -106 85 0 6 14 33 30 59 l31 48 28 -19 c15 -10 40 -28 54 -39z
m3691 -1 l28 -48 -48 -42 c-27 -23 -54 -43 -60 -43 -17 0 -74 92 -66 106 14
24 93 83 105 78 7 -2 25 -26 41 -51z m-1824 -73 c0 -8 -19 -35 -42 -59 l-42
-44 -43 49 c-24 27 -43 51 -43 55 0 3 20 28 45 54 l44 48 40 -44 c22 -24 41
-51 41 -59z m-2221 50 c53 -42 61 -59 37 -79 -8 -6 -19 -25 -26 -41 -7 -17
-17 -30 -22 -30 -18 0 -108 71 -108 85 0 17 52 105 62 105 3 0 29 -18 57 -40z
m1651 -60 c0 -8 -17 -34 -38 -58 l-37 -43 -48 49 -48 49 42 52 41 53 44 -43
c24 -24 44 -50 44 -59z m1140 2 c0 -20 -71 -92 -92 -92 -10 0 -18 3 -18 8 0 4
-14 22 -30 41 -17 18 -30 37 -30 41 0 5 21 30 46 56 l47 48 38 -45 c21 -24 39
-50 39 -57z m1582 46 c16 -25 26 -52 23 -59 -7 -16 -89 -79 -104 -79 -11 0
-61 83 -61 102 1 15 91 88 105 84 5 -1 22 -23 37 -48z m-4612 -17 c59 -42 61
-47 33 -97 -14 -25 -31 -48 -39 -51 -14 -5 -100 54 -108 75 -3 7 1 24 9 38 52
85 41 81 105 35z m1283 -6 c26 -24 47 -47 47 -50 0 -13 -66 -94 -76 -95 -16 0
-94 73 -94 89 0 14 60 101 70 101 3 0 27 -20 53 -45z m2287 -10 c16 -24 30
-46 30 -49 0 -10 -85 -86 -97 -86 -13 0 -73 78 -73 96 0 17 89 96 100 89 5 -3
23 -26 40 -50z m1274 9 c14 -26 26 -52 26 -59 0 -14 -91 -85 -109 -85 -6 0
-22 23 -36 51 -20 39 -24 54 -15 64 10 12 99 75 106 75 1 0 14 -21 28 -46z
m-4130 -41 c25 -21 46 -44 46 -52 0 -19 -53 -101 -65 -101 -5 0 -32 20 -59 43
l-48 43 32 52 c17 29 35 52 39 52 5 0 29 -17 55 -37z m3419 -8 c15 -25 27 -51
27 -58 0 -12 -86 -87 -100 -87 -5 0 -23 23 -41 51 l-33 51 50 44 c27 24 54 43
59 44 6 0 22 -20 38 -45z m-4011 -32 c2 -5 20 -21 41 -36 20 -15 37 -35 37
-44 0 -17 -38 -84 -54 -95 -5 -3 -33 12 -62 34 -57 42 -56 38 -19 111 17 33
48 50 57 30z m4574 -38 c13 -22 23 -46 24 -52 0 -17 -99 -95 -111 -87 -5 3
-21 28 -35 55 l-25 50 23 18 c13 10 34 28 48 40 34 28 49 23 76 -24z"/>
<path d="M3337 3214 c-1 -1 -146 -5 -322 -8 -176 -4 -349 -9 -385 -10 -139 -7
-307 -17 -350 -21 -25 -2 -81 -6 -125 -10 -188 -14 -212 -16 -255 -20 -25 -3
-67 -7 -95 -9 -129 -13 -285 -31 -366 -42 -20 -2 -54 -6 -75 -9 -21 -2 -52 -6
-69 -9 -16 -2 -55 -7 -85 -11 -67 -8 -107 -14 -140 -20 -14 -3 -43 -7 -65 -10
-22 -2 -60 -8 -85 -12 -25 -4 -48 -6 -52 -5 -4 1 -12 -7 -17 -17 -8 -13 -3
-41 15 -102 15 -46 31 -90 37 -97 12 -15 16 -15 212 16 72 12 154 24 184 27
30 4 62 8 72 10 10 2 45 6 78 10 33 3 68 7 78 9 10 2 52 7 93 11 41 4 77 8 80
10 3 2 41 6 85 9 44 3 96 8 115 11 41 5 114 12 225 21 44 3 96 8 115 9 19 2
91 7 160 10 69 4 141 8 160 10 250 24 1229 24 1634 0 189 -12 367 -24 426 -30
25 -2 79 -7 120 -11 41 -3 88 -7 105 -9 16 -2 61 -7 100 -10 38 -4 81 -8 95
-10 14 -2 50 -6 80 -10 70 -8 205 -24 248 -30 43 -7 100 -15 142 -20 19 -3 53
-8 75 -11 22 -3 80 -12 128 -20 49 -8 97 -12 107 -9 14 4 27 30 45 86 14 44
25 91 25 104 0 24 -9 28 -85 39 -16 2 -61 9 -100 15 -142 21 -329 47 -405 56
-124 14 -194 22 -270 30 -30 3 -71 8 -90 10 -19 2 -71 7 -115 11 -44 3 -93 8
-110 9 -31 3 -203 16 -265 20 -30 2 -210 13 -350 20 -37 3 -259 8 -698 19 -35
0 -64 0 -65 0z"/>
<path d="M5237 2653 c-3 -5 -42 -96 -87 -203 -72 -170 -200 -462 -262 -600
-12 -25 -35 -79 -53 -120 -29 -68 -53 -119 -145 -315 -39 -82 -63 -103 -125
-107 -48 -3 -50 -5 -53 -34 l-3 -31 231 0 231 0 -3 31 c-3 30 -4 30 -63 34
-67 3 -105 22 -105 52 0 18 22 80 56 160 9 19 30 69 48 110 l32 75 286 2 c210
1 288 -2 291 -10 3 -7 33 -81 67 -165 34 -84 63 -161 65 -172 6 -32 -25 -48
-100 -52 l-70 -3 -3 -32 -3 -32 265 2 c170 1 267 5 268 12 7 46 -1 55 -50 55
-74 0 -72 -4 -311 560 -95 223 -180 423 -190 445 -10 22 -47 109 -82 192 -63
151 -64 153 -96 153 -17 0 -34 -3 -36 -7z m18 -340 c15 -38 33 -81 40 -98 7
-16 29 -68 48 -115 19 -47 53 -128 75 -180 22 -52 42 -102 44 -110 3 -12 -32
-15 -237 -15 -132 -1 -243 0 -246 2 -4 1 43 119 103 260 60 142 116 273 123
291 8 17 16 32 18 32 3 0 17 -30 32 -67z"/>
<path d="M910 2610 c0 -22 5 -30 18 -31 134 -5 158 -14 169 -67 9 -48 9 -1095
-1 -1145 -9 -49 -35 -59 -173 -66 -7 -1 -13 -14 -13 -30 l0 -29 243 1 242 2 1
23 c2 30 -9 35 -79 38 -69 4 -102 22 -110 59 -10 58 -16 1014 -6 1021 4 2 14
-13 22 -34 8 -20 60 -129 115 -242 55 -113 124 -257 155 -320 30 -63 85 -178
122 -255 38 -77 85 -178 105 -225 54 -125 72 -121 129 23 39 97 103 238 196
432 43 88 90 187 105 220 67 144 209 435 213 435 2 0 3 -233 2 -519 -2 -558
-3 -575 -52 -587 -23 -6 -68 -11 -120 -13 -18 -1 -23 -7 -23 -30 l0 -29 287 2
286 1 2 23 c2 29 3 29 -75 36 -93 9 -98 12 -111 59 -13 46 -17 1068 -5 1141 8
52 27 63 113 71 56 6 72 11 76 25 10 38 -3 41 -202 38 l-193 -3 -27 -65 c-36
-83 -62 -140 -124 -270 -27 -58 -69 -145 -92 -195 -24 -49 -75 -157 -115 -240
-40 -82 -92 -193 -117 -245 l-46 -95 -94 195 c-315 646 -381 786 -413 863
l-24 57 -193 0 -193 0 0 -30z"/>
<path d="M2837 2628 c-9 -29 5 -48 37 -49 85 -3 118 -16 137 -51 12 -22 15
-917 4 -1093 -7 -110 -17 -122 -99 -130 -70 -7 -75 -10 -71 -33 2 -9 4 -20 4
-23 1 -3 99 -6 219 -5 l217 1 3 28 c3 24 0 27 -25 28 -15 1 -32 2 -38 4 -5 1
-22 3 -36 3 -35 3 -57 22 -65 57 -3 17 -7 261 -9 544 -2 512 -2 515 17 490 11
-13 34 -42 51 -63 18 -21 90 -111 160 -200 71 -89 143 -179 160 -200 47 -59
136 -169 150 -186 7 -8 39 -49 72 -90 33 -41 67 -84 76 -95 10 -11 69 -83 132
-160 62 -77 120 -145 128 -151 11 -9 144 -44 168 -44 3 0 6 289 6 643 0 353 3
654 8 669 9 34 36 49 96 55 65 6 71 9 71 38 l0 25 -224 0 -224 0 3 -25 c1 -14
4 -27 6 -29 2 -2 31 -7 64 -10 32 -3 66 -12 74 -20 25 -26 29 -101 30 -605 2
-463 1 -493 -15 -480 -13 11 -89 101 -201 239 -116 142 -427 537 -558 708
l-170 221 -177 1 c-132 0 -177 -3 -181 -12z"/>
</g>
</svg>
