<?xml version="1.0" encoding="utf-8"?>
<!-- Generator: Adobe Illustrator 22.1.0, SVG Export Plug-In . SVG Version: 6.00 Build 0)  -->
<svg version="1.1" xmlns="http://www.w3.org/2000/svg" xmlns:xlink="http://www.w3.org/1999/xlink" x="0px" y="0px"
	 viewBox="0 0 2272 1872" style="enable-background:new 0 0 2272 1872;" xml:space="preserve">
<style type="text/css">
	.st0{fill:#C1C2C6;}
	.st1{fill:#D8D8D8;}
	.st2{fill:#FFFFFF;}
	.st3{fill:#4EC7F7;}
	.st4{fill:#0061B3;}
	.st5{fill:#00ABF3;}
	.st6{fill:#414143;}
	.st7{opacity:0.1;}
	.st8{font-family:'Abel-Regular';}
	.st9{font-size:47.2143px;}
	.st10{letter-spacing:9;}
	.st11{font-size:33.8471px;}
	.st12{font-size:50.7707px;}
	.st13{font-size:24px;}
	.st14{font-size:27.7487px;}
	.st15{letter-spacing:5;}
	.st16{font-size:19.8925px;}
</style>
<g id="background">
	<rect class="st0" width="2272" height="1872"/>
	<polygon class="st1" points="2272,1872 0,1872 2272,0 	"/>
</g>
<g id="object">
	<g>
		
			<rect x="791.5" y="-89.9" transform="matrix(-1.836970e-16 1 -1 -1.836970e-16 1646.6354 -624.8945)" class="st2" width="688.5" height="1201.6"/>
		<g>
			<polygon class="st3" points="1135.8,166.6 1269.3,396.1 1336,396.1 			"/>
			<polygon class="st4" points="1402.8,625.6 1536.3,855.1 1736.6,855.1 1536.3,625.6 			"/>
			<polygon class="st5" points="1336,396.1 1269.3,396.1 1402.8,625.6 1536.3,625.6 			"/>
			<polygon class="st6" points="1135.8,166.6 1736.6,855.1 1736.6,166.6 			"/>
		</g>
		<g>
			<g>
				<path class="st3" d="M1079,417.9v-64.5h-64.5l-45.6-45.6l-45.6,45.6h-64.5v64.5l-45.6,45.6l45.6,45.6v64.5h64.5l45.6,45.6
					l45.6-45.6h64.5v-64.5l45.6-45.6L1079,417.9z M1064.9,503.2v56.2h-56.2l-39.8,39.8l-39.8-39.8h-56.2v-56.2l-39.8-39.8l39.8-39.8
					v-56.2h56.2l39.8-39.8l39.8,39.8h56.2v56.2l39.8,39.8L1064.9,503.2z"/>
				<g>
					<polygon class="st3" points="928.8,505.2 968.9,425 1016,519.2 1031.8,519.2 968.9,393.5 906,519.4 1005.5,519.4 975.1,458.7 
						967.2,474.4 982.6,505.2 					"/>
				</g>
			</g>
		</g>
	</g>
	
		<rect x="792" y="733.8" transform="matrix(-1.836970e-16 1 -1 -1.836970e-16 2470.864 198.3939)" class="st2" width="688.5" height="1201.6"/>
	
		<rect x="491.1" y="1033.5" transform="matrix(-1.836970e-16 1 -1 -1.836970e-16 2169.2957 498.5519)" class="st6" width="688.5" height="600.8"/>
	<g>
		<g>
			<path class="st3" d="M863.1,1279.3v-37.9h-37.9l-26.8-26.8l-26.8,26.8h-37.9v37.9l-26.8,26.8l26.8,26.8v37.9h37.9l26.8,26.8
				l26.8-26.8h37.9v-37.9l26.8-26.8L863.1,1279.3z M854.8,1329.4v33h-33l-23.4,23.4l-23.4-23.4h-33v-33l-23.4-23.4l23.4-23.4v-33h33
				l23.4-23.4l23.4,23.4h33v33l23.4,23.4L854.8,1329.4z"/>
			<polygon class="st3" points="794.6,1306.9 806.5,1330.6 774.9,1330.6 798.4,1283.5 826.1,1338.8 835.4,1338.8 798.4,1264.9 
				761.4,1338.9 819.9,1338.9 802,1303.2 			"/>
		</g>
	</g>
	<g>
		<polygon class="st3" points="1135.8,989.7 1085.7,1219.2 1135.8,1219.2 		"/>
		<polygon class="st5" points="1135.8,1219.2 1085.7,1219.2 1035.6,1448.7 1135.8,1448.7 		"/>
		<polygon class="st4" points="1035.6,1448.7 985.6,1678.2 1135.8,1678.2 1135.8,1448.7 		"/>
	</g>
	<g>
		<g>
			<path class="st3" d="M1222,1150.7c-20.2,0-36.6-16.4-36.6-36.6c0-20.2,16.4-36.6,36.6-36.6s36.6,16.4,36.6,36.6
				C1258.6,1134.3,1242.2,1150.7,1222,1150.7z M1222,1081.7c-17.9,0-32.4,14.5-32.4,32.4c0,17.9,14.5,32.4,32.4,32.4
				c17.9,0,32.4-14.5,32.4-32.4C1254.4,1096.2,1239.8,1081.7,1222,1081.7z"/>
		</g>
		<path class="st3" d="M1222,1146.7c9.2,0,17.5-3.8,23.4-10c-1.6-8.7-7.9-15.8-16.2-18.5c5.1-2.6,8.7-8,8.7-14.1
			c0-8.8-7.1-15.8-15.8-15.8s-15.8,7.1-15.8,15.8c0,6.2,3.5,11.5,8.7,14.1c-8.3,2.6-14.7,9.7-16.2,18.5
			C1204.5,1142.9,1212.8,1146.7,1222,1146.7z"/>
	</g>
	<g>
		<g>
			<path class="st3" d="M1222,1297.3c-20.2,0-36.6-16.4-36.6-36.6s16.4-36.6,36.6-36.6s36.6,16.4,36.6,36.6
				S1242.2,1297.3,1222,1297.3z M1222,1228.2c-17.9,0-32.4,14.5-32.4,32.4c0,17.9,14.5,32.4,32.4,32.4c17.9,0,32.4-14.5,32.4-32.4
				C1254.4,1242.8,1239.8,1228.2,1222,1228.2z"/>
		</g>
		<rect x="1219.8" y="1224" class="st3" width="4.2" height="73.3"/>
		
			<rect x="1219.8" y="1241.2" transform="matrix(-1.836970e-16 1 -1 -1.836970e-16 2495.5183 51.5976)" class="st3" width="4.2" height="64.8"/>
		
			<rect x="1219.8" y="1215.3" transform="matrix(-1.836970e-16 1 -1 -1.836970e-16 2469.6743 25.7535)" class="st3" width="4.2" height="64.8"/>
	</g>
	<g>
		<g>
			<path class="st3" d="M1222,1443.9c-20.2,0-36.6-16.4-36.6-36.6s16.4-36.6,36.6-36.6s36.6,16.4,36.6,36.6
				S1242.2,1443.9,1222,1443.9z M1222,1374.8c-17.9,0-32.4,14.5-32.4,32.4s14.5,32.4,32.4,32.4c17.9,0,32.4-14.5,32.4-32.4
				S1239.8,1374.8,1222,1374.8z"/>
		</g>
		<polygon class="st3" points="1222,1376.2 1194.5,1410.7 1201.3,1410.7 1201.3,1435.4 1222,1441 1242.6,1435.4 1242.6,1410.7 
			1249.4,1410.7 		"/>
	</g>
	<g>
		<g>
			<path class="st3" d="M1222,1590.4c-20.2,0-36.6-16.4-36.6-36.6s16.4-36.6,36.6-36.6s36.6,16.4,36.6,36.6
				S1242.2,1590.4,1222,1590.4z M1222,1521.4c-17.9,0-32.4,14.5-32.4,32.4c0,17.9,14.5,32.4,32.4,32.4c17.9,0,32.4-14.5,32.4-32.4
				C1254.4,1535.9,1239.8,1521.4,1222,1521.4z"/>
		</g>
		<rect x="1219.8" y="1538.4" class="st3" width="4.2" height="2.1"/>
		<circle class="st3" cx="1222" cy="1578.4" r="3.5"/>
		<path class="st3" d="M1240.3,1580.5v-49.2h-36.6v49.2c1.3,0.9,2.8,1.8,4.2,2.5v-47.4h28.2v47.4
			C1237.5,1582.2,1238.9,1581.4,1240.3,1580.5z"/>
	</g>
	<polygon class="st7" points="1736.6,855.1 535,855.1 575,881.6 1696.6,881.6 	"/>
	<polygon class="st7" points="1736.6,1678.9 535,1678.9 575,1705.4 1696.6,1705.4 	"/>
</g>
<g id="text">
	<text transform="matrix(1 0 0 1 721.8398 661.6422)" class="st6 st8 st9 st10">Al-Ammar Company</text>
	<text transform="matrix(1 0 0 1 799.2241 703.9512)" class="st6 st8 st11">Give Smart | Give Together</text>
	<g>
		<text transform="matrix(1 0 0 1 1286.8105 1117.1013)" class="st6 st8 st12">Mundhir El-Sadek</text>
		<text transform="matrix(1 0 0 1 1286.8105 1147.1018)" class="st6 st8 st13">Relational Branding Assistant</text>
	</g>
	<text transform="matrix(1 0 0 1 1286.8105 1270.0317)" class="st6 st8 st11">Mundhir@alammar.com</text>
	<text transform="matrix(1 0 0 1 1286.8105 1416.606)" class="st6 st8 st11">Box No. 1159, Dubai</text>
	<text transform="matrix(1 0 0 1 1286.8105 1563.1821)" class="st6 st8 st11">0123456789</text>
	<text transform="matrix(1 0 0 1 653.2197 1422.5347)" class="st2 st8 st14 st15">Al-Ammar Company</text>
	<text transform="matrix(1 0 0 1 698.6997 1447.4009)" class="st2 st8 st16">Give Smart | Give Together</text>
</g>
</svg>
